<svg xmlns="http://www.w3.org/2000/svg" width="30" height="35" fill="none"><g clip-path="url(#a)"><path fill="#F1F1F1" d="M26.786 2.175H3.214a3.19 3.19 0 0 0-2.273.956A3.287 3.287 0 0 0 0 5.438v23.925c0 .865.339 1.695.941 2.306a3.19 3.19 0 0 0 2.273.956h9.191V22.273H8.186V17.4h4.22v-3.714c0-4.224 2.477-6.557 6.272-6.557 1.817 0 3.717.329 3.717.329v4.146h-2.093c-2.064 0-2.707 1.3-2.707 2.632V17.4H22.2l-.737 4.873h-3.87v10.352h9.192a3.19 3.19 0 0 0 2.273-.956A3.288 3.288 0 0 0 30 29.363V5.438c0-.866-.339-1.696-.941-2.307a3.19 3.19 0 0 0-2.273-.956Z"/></g><defs><clipPath id="a"><path fill="#fff" d="M0 0h30v34.8H0z"/></clipPath></defs></svg>