<svg xmlns="http://www.w3.org/2000/svg" width="30" height="35" fill="none"><g clip-path="url(#a)"><path fill="#F1F1F1" d="M15 13.775c-.706 0-1.397.213-1.984.611a3.614 3.614 0 0 0-1.315 1.628 3.675 3.675 0 0 0-.203 2.094c.138.703.479 1.35.978 1.856.5.507 1.136.852 1.829.992.693.14 1.41.068 2.064-.207a3.583 3.583 0 0 0 1.602-1.335 3.664 3.664 0 0 0-.445-4.577A3.548 3.548 0 0 0 15 13.775Zm8.351-2.787a3.674 3.674 0 0 0-.807-1.248 3.611 3.611 0 0 0-1.23-.82C19.91 8.358 16.56 8.485 15 8.485c-1.56 0-4.905-.131-6.315.437-.461.185-.88.463-1.23.819-.35.355-.625.78-.807 1.248-.554 1.427-.43 4.83-.43 6.411 0 1.583-.124 4.98.433 6.412.182.468.456.893.807 1.249.35.355.768.634 1.23.819 1.405.563 4.754.436 6.315.436 1.56 0 4.904.132 6.314-.437.461-.184.88-.463 1.23-.818.35-.356.625-.78.807-1.248.559-1.428.43-4.83.43-6.412 0-1.582.129-4.98-.43-6.411l-.003-.001ZM15 22.974a5.434 5.434 0 0 1-3.05-.94 5.556 5.556 0 0 1-2.023-2.501 5.651 5.651 0 0 1-.313-3.22 5.6 5.6 0 0 1 1.503-2.854 5.468 5.468 0 0 1 2.812-1.525 5.416 5.416 0 0 1 3.172.317 5.51 5.51 0 0 1 2.465 2.053c.603.916.925 1.994.925 3.096a5.64 5.64 0 0 1-.416 2.134 5.575 5.575 0 0 1-1.19 1.81 5.48 5.48 0 0 1-1.783 1.207 5.415 5.415 0 0 1-2.102.423Zm5.717-10.08c-.253 0-.501-.076-.712-.22a1.297 1.297 0 0 1-.472-.583 1.319 1.319 0 0 1 .277-1.418 1.265 1.265 0 0 1 1.397-.282c.234.098.434.265.575.479.141.214.216.466.216.723a1.316 1.316 0 0 1-.372.921 1.278 1.278 0 0 1-.906.382l-.003-.002Zm6.069-10.719H3.214a3.19 3.19 0 0 0-2.273.956A3.287 3.287 0 0 0 0 5.438v23.925c0 .865.339 1.695.941 2.306a3.19 3.19 0 0 0 2.273.956h23.572a3.19 3.19 0 0 0 2.273-.956A3.288 3.288 0 0 0 30 29.363V5.438c0-.866-.339-1.696-.941-2.307a3.19 3.19 0 0 0-2.273-.956Zm-1.147 19.711c-.086 1.742-.478 3.286-1.73 4.554-1.254 1.268-2.773 1.674-4.487 1.757-1.769.101-7.071.101-8.84 0-1.716-.088-3.231-.486-4.486-1.757s-1.65-2.815-1.731-4.554c-.1-1.796-.1-7.178 0-8.972.086-1.742.473-3.285 1.73-4.554 1.258-1.268 2.778-1.67 4.487-1.752 1.769-.101 7.071-.101 8.84 0 1.716.088 3.236.486 4.486 1.757 1.25 1.271 1.65 2.815 1.731 4.557.1 1.79.1 7.167 0 8.964Z"/></g><defs><clipPath id="a"><path fill="#fff" d="M0 0h30v34.8H0z"/></clipPath></defs></svg>